<svg width="185.903519" height="143.315430" viewBox="0 0 185.904 143.315" fill="none" xmlns="http://www.w3.org/2000/svg">
	<path d="M35.77 39.82L40.38 43.97L46.25 37.44L41.95 33.77Q43.64 31.31 44.57 28.58Q45.67 25.33 45.67 21.7Q45.67 16.85 43.87 12.8Q42.29 9.24 39.33 6.29Q36.94 3.92 34.08 2.44Q29.38 0 23.4 0Q17.55 0 12.89 2.35Q9.9 3.85 7.41 6.32Q4.29 9.41 2.69 13.15Q1.02 17.07 1.02 21.7Q1.02 26.61 2.85 30.69Q4.42 34.21 7.35 37.13Q9.72 39.49 12.55 40.97Q17.28 43.43 23.29 43.43Q27.55 43.43 31.31 42.05Q33.63 41.2 35.77 39.82ZM117.34 41.28Q121.68 43.43 127.09 43.43Q132.9 43.43 136.89 41.7Q140.89 39.96 144.3 36.29L138.43 30Q135.66 32.51 133.2 33.72Q130.74 34.92 127.38 34.92Q124.58 34.92 122.29 33.83Q120.27 32.88 118.65 31.08Q117.38 29.65 116.58 28Q115.21 25.18 115.21 21.7Q115.21 18.02 116.71 15.11Q117.48 13.61 118.65 12.31Q120.25 10.55 122.23 9.61Q124.54 8.51 127.38 8.51Q130.74 8.51 133.11 9.62Q135.48 10.73 138.18 13.19L143.7 6.84Q140.35 3.53 136.62 1.77Q132.9 0 127.44 0Q121.45 0 116.78 2.48Q114.02 3.95 111.72 6.29Q108.98 9.09 107.45 12.45Q105.54 16.64 105.54 21.7Q105.54 27.01 107.59 31.34Q109.09 34.51 111.69 37.16Q114.25 39.76 117.34 41.28ZM55.24 39.7Q59.86 43.37 67.4 43.37Q74.97 43.37 79.66 39.7Q80.33 39.17 80.94 38.58Q81.16 38.36 81.37 38.13Q85.83 33.35 85.83 24.41L85.83 0.71L76.58 0.71L76.58 24.77Q76.58 29.69 74.21 32.27Q73.75 32.77 73.22 33.17Q71 34.84 67.52 34.84Q64.18 34.84 62.01 33.25Q61.36 32.79 60.82 32.18Q58.46 29.51 58.46 24.47L58.46 0.71L49.22 0.71L49.22 24.71Q49.22 33.36 53.53 38.1Q53.76 38.36 54.01 38.61Q54.6 39.19 55.24 39.7ZM91.67 0.71L91.67 42.71L100.91 42.71L100.91 0.71L91.67 0.71ZM147.68 0.71L147.68 42.71L156.92 42.71L156.92 29.86L161.79 24.82L174.8 42.71L185.9 42.71L168.03 18.53L185.12 0.71L173.96 0.71L156.92 19.07L156.92 0.71L147.68 0.71ZM27.61 34.28Q25.61 34.92 23.4 34.92Q20.22 34.92 17.68 33.65Q15.81 32.71 14.28 31.08Q12.8 29.49 11.93 27.63Q10.69 24.95 10.69 21.7Q10.69 18.17 12.11 15.34Q12.93 13.71 14.22 12.31Q15.66 10.76 17.43 9.85Q20.01 8.51 23.29 8.51Q26.46 8.51 28.99 9.78Q30.87 10.72 32.4 12.36Q33.9 13.96 34.78 15.85Q36 18.49 36 21.7Q36 25.07 34.86 27.59L27.96 21.35L22.08 27.94L28.93 33.77Q28.28 34.06 27.61 34.28ZM7.34 91.29Q12.15 93.31 17.82 93.31Q24.67 93.31 28.87 89.98Q28.94 89.92 29.01 89.87Q30.49 88.67 31.45 87.14Q33.25 84.28 33.25 80.29Q33.25 76.17 31.27 73.56Q30.71 72.82 30 72.2Q26.76 69.37 19.92 67.57Q14.34 66.12 12.59 65.11Q11.75 64.61 11.32 63.87Q10.86 63.1 10.86 62.05Q10.86 61.29 11.15 60.65Q11.5 59.89 12.27 59.33Q13.68 58.27 16.25 58.27Q21.24 58.27 27.18 62.42L31.99 55.44Q29.35 53.33 26.35 52.06Q21.78 50.11 16.39 50.11Q10.77 50.11 6.93 52.73Q6.33 53.13 5.78 53.6Q4.07 55.05 3.07 56.89Q1.68 59.45 1.68 62.77Q1.68 65.83 2.6 68.03Q2.94 68.8 3.4 69.48Q4.25 70.72 5.55 71.66Q7.57 73.1 9.78 73.96Q12.01 74.82 15.6 75.73Q20.71 77.05 22.38 78.16Q23.42 78.84 23.82 79.8Q24.06 80.38 24.06 81.06Q24.06 81.98 23.69 82.71Q23.28 83.5 22.44 84.07Q20.83 85.15 18 85.15Q17.72 85.15 17.45 85.14Q11.38 84.93 5.46 80.05L0 86.59Q3.38 89.62 7.34 91.29ZM80.26 50.41L62.26 92.71L71.68 92.71L75.53 83.29L93.28 83.29L97.12 92.71L106.79 92.71L88.79 50.41L80.26 50.41ZM46.17 59.22L46.17 92.71L55.39 92.71L55.39 59.22L68.18 59.22L68.18 50.71L33.38 50.71L33.38 59.22L46.17 59.22ZM109.26 50.71L109.26 92.71L118.5 92.71L118.5 79.26L125.64 79.26L134.76 92.71L145.56 92.71L135.31 77.71Q139.75 76.05 142 72.85Q144.3 69.57 144.3 64.69Q144.3 59.79 142 56.52Q141.42 55.69 140.7 54.98Q140.39 54.67 140.07 54.39Q135.88 50.71 128.47 50.71L109.26 50.71ZM158.43 59.22L158.43 92.71L167.65 92.71L167.65 59.22L180.44 59.22L180.44 50.71L145.64 50.71L145.64 59.22L158.43 59.22ZM127.86 71.1L118.5 71.1L118.5 59.05L127.69 59.05Q131.1 59.05 133.02 60.59Q133.53 60.99 133.91 61.5Q134.94 62.89 134.94 65.05Q134.94 66.84 134.16 68.16Q133.73 68.88 133.08 69.46Q131.22 71.1 127.86 71.1ZM84.41 61.51L89.99 75.13L78.82 75.13L84.41 61.51ZM7.34 141.28Q12.15 143.31 17.82 143.31Q24.67 143.31 28.87 139.98Q28.94 139.92 29.01 139.87Q30.49 138.67 31.45 137.14Q33.25 134.28 33.25 130.29Q33.25 126.17 31.27 123.56Q30.71 122.82 30 122.2Q26.76 119.38 19.92 117.57Q14.34 116.12 12.59 115.11Q11.75 114.61 11.32 113.88Q10.86 113.1 10.86 112.05Q10.86 111.29 11.15 110.66Q11.5 109.89 12.27 109.33Q13.68 108.27 16.25 108.27Q21.24 108.27 27.18 112.42L31.99 105.44Q29.35 103.33 26.35 102.06Q21.78 100.11 16.39 100.11Q10.77 100.11 6.93 102.73Q6.33 103.13 5.78 103.6Q4.07 105.05 3.07 106.89Q1.68 109.45 1.68 112.77Q1.68 115.83 2.6 118.03Q2.94 118.8 3.4 119.48Q4.25 120.72 5.55 121.66Q7.57 123.1 9.78 123.96Q12.01 124.82 15.6 125.73Q20.71 127.05 22.38 128.16Q23.42 128.85 23.82 129.8Q24.06 130.38 24.06 131.06Q24.06 131.99 23.69 132.71Q23.28 133.5 22.44 134.07Q20.83 135.15 18 135.15Q17.72 135.15 17.45 135.14Q11.38 134.93 5.46 130.05L0 136.59Q3.38 139.62 7.34 141.28ZM37.71 100.71L37.71 142.71L46.95 142.71L46.95 100.71L37.71 100.71ZM63.23 109.22L63.23 142.71L72.45 142.71L72.45 109.22L85.24 109.22L85.24 100.71L50.44 100.71L50.44 109.22L63.23 109.22ZM88.32 100.71L88.32 142.71L120.3 142.71L120.3 134.49L97.51 134.49L97.51 125.67L117.3 125.67L117.3 117.46L97.51 117.46L97.51 108.93L120.01 108.93L120.01 100.71L88.32 100.71Z" fill="#4f4f4f" fill-opacity="1.000000"/>
</svg>
